<?xml version="1.0" standalone="no"?><!-- Generator: Gravit.io --><svg xmlns="http://www.w3.org/2000/svg" xmlns:xlink="http://www.w3.org/1999/xlink" style="isolation:isolate" viewBox="0 0 441.699 660.064" width="441.699" height="660.064"><defs><clipPath id="_clipPath_eIbRgHsgUzx0DzBt867ZUiPJ660ZhrX8"><rect width="441.699" height="660.064"/></clipPath></defs><g clip-path="url(#_clipPath_eIbRgHsgUzx0DzBt867ZUiPJ660ZhrX8)"><path d=" M 0 2.029 L 438.654 0 L 441.699 658.034 L 3.044 660.064 L 0 2.029 Z " fill="rgb(28,25,25)"/><path d=" M 61.135 44.656 L 372.245 44.656 C 384.976 44.656 395.312 54.992 395.312 67.723 L 395.312 562.709 C 395.312 575.44 384.976 585.777 372.245 585.777 L 61.135 585.777 C 48.403 585.777 38.067 575.44 38.067 562.709 L 38.067 67.723 C 38.067 54.992 48.403 44.656 61.135 44.656 Z " fill="rgb(74,172,74)"/><path d=" M 68.495 85.371 L 373.204 85.371 L 373.204 627.805 L 68.495 627.805 L 68.495 85.371 Z " fill="rgb(238,238,238)"/><path d=" M 200.182 25.887 L 200.182 25.887 L 200.182 25.887 Q 197.393 25.887 195.864 24.17 L 195.864 24.17 L 195.864 24.17 Q 194.334 22.453 194.334 19.313 L 194.334 19.313 L 194.334 19.313 Q 194.334 16.09 195.887 14.332 L 195.887 14.332 L 195.887 14.332 Q 197.44 12.574 200.311 12.574 L 200.311 12.574 L 200.311 12.574 Q 201.237 12.574 202.163 12.773 L 202.163 12.773 L 202.163 12.773 Q 203.088 12.973 203.616 13.242 L 203.616 13.242 L 203.018 14.895 L 203.018 14.895 Q 202.374 14.637 201.612 14.467 L 201.612 14.467 L 201.612 14.467 Q 200.85 14.297 200.264 14.297 L 200.264 14.297 L 200.264 14.297 Q 196.35 14.297 196.35 19.289 L 196.35 19.289 L 196.35 19.289 Q 196.35 21.656 197.305 22.922 L 197.305 22.922 L 197.305 22.922 Q 198.26 24.188 200.135 24.188 L 200.135 24.188 L 200.135 24.188 Q 201.741 24.188 203.428 23.496 L 203.428 23.496 L 203.428 25.219 L 203.428 25.219 Q 202.139 25.887 200.182 25.887 Z  M 217.561 19.219 L 217.561 19.219 L 217.561 19.219 Q 217.561 22.359 215.979 24.123 L 215.979 24.123 L 215.979 24.123 Q 214.397 25.887 211.608 25.887 L 211.608 25.887 L 211.608 25.887 Q 209.885 25.887 208.549 25.078 L 208.549 25.078 L 208.549 25.078 Q 207.213 24.27 206.487 22.758 L 206.487 22.758 L 206.487 22.758 Q 205.76 21.246 205.76 19.219 L 205.76 19.219 L 205.76 19.219 Q 205.76 16.078 207.331 14.326 L 207.331 14.326 L 207.331 14.326 Q 208.901 12.574 211.69 12.574 L 211.69 12.574 L 211.69 12.574 Q 214.385 12.574 215.973 14.367 L 215.973 14.367 L 215.973 14.367 Q 217.561 16.16 217.561 19.219 Z  M 207.776 19.219 L 207.776 19.219 L 207.776 19.219 Q 207.776 21.68 208.76 22.969 L 208.76 22.969 L 208.76 22.969 Q 209.745 24.258 211.655 24.258 L 211.655 24.258 L 211.655 24.258 Q 213.565 24.258 214.555 22.975 L 214.555 22.975 L 214.555 22.975 Q 215.545 21.691 215.545 19.219 L 215.545 19.219 L 215.545 19.219 Q 215.545 16.77 214.555 15.498 L 214.555 15.498 L 214.555 15.498 Q 213.565 14.227 211.631 14.227 L 211.631 14.227 L 211.631 14.227 Q 209.721 14.227 208.749 15.48 L 208.749 15.48 L 208.749 15.48 Q 207.776 16.734 207.776 19.219 Z  M 231.706 25.652 L 229.76 25.652 L 229.76 17.344 L 229.76 17.344 Q 229.76 15.773 229.045 15 L 229.045 15 L 229.045 15 Q 228.331 14.227 226.807 14.227 L 226.807 14.227 L 226.807 14.227 Q 224.792 14.227 223.854 15.316 L 223.854 15.316 L 223.854 15.316 Q 222.917 16.406 222.917 18.914 L 222.917 18.914 L 222.917 25.652 L 220.971 25.652 L 220.971 12.809 L 222.553 12.809 L 222.87 14.566 L 222.963 14.566 L 222.963 14.566 Q 223.561 13.617 224.639 13.096 L 224.639 13.096 L 224.639 13.096 Q 225.717 12.574 227.042 12.574 L 227.042 12.574 L 227.042 12.574 Q 229.362 12.574 230.534 13.693 L 230.534 13.693 L 230.534 13.693 Q 231.706 14.813 231.706 17.273 L 231.706 17.273 L 231.706 25.652 Z  M 239.85 24.281 L 239.85 24.281 L 239.85 24.281 Q 240.366 24.281 240.846 24.205 L 240.846 24.205 L 240.846 24.205 Q 241.327 24.129 241.608 24.047 L 241.608 24.047 L 241.608 25.535 L 241.608 25.535 Q 241.292 25.688 240.676 25.787 L 240.676 25.787 L 240.676 25.787 Q 240.061 25.887 239.569 25.887 L 239.569 25.887 L 239.569 25.887 Q 235.842 25.887 235.842 21.961 L 235.842 21.961 L 235.842 14.32 L 234.002 14.32 L 234.002 13.383 L 235.842 12.574 L 236.663 9.832 L 237.788 9.832 L 237.788 12.809 L 241.514 12.809 L 241.514 14.32 L 237.788 14.32 L 237.788 21.879 L 237.788 21.879 Q 237.788 23.039 238.338 23.66 L 238.338 23.66 L 238.338 23.66 Q 238.889 24.281 239.85 24.281 Z  M 253.514 25.652 L 252.073 25.652 L 251.686 23.824 L 251.592 23.824 L 251.592 23.824 Q 250.631 25.031 249.676 25.459 L 249.676 25.459 L 249.676 25.459 Q 248.721 25.887 247.292 25.887 L 247.292 25.887 L 247.292 25.887 Q 245.381 25.887 244.297 24.902 L 244.297 24.902 L 244.297 24.902 Q 243.213 23.918 243.213 22.102 L 243.213 22.102 L 243.213 22.102 Q 243.213 18.211 249.436 18.023 L 249.436 18.023 L 251.616 17.953 L 251.616 17.156 L 251.616 17.156 Q 251.616 15.645 250.965 14.924 L 250.965 14.924 L 250.965 14.924 Q 250.315 14.203 248.885 14.203 L 248.885 14.203 L 248.885 14.203 Q 247.28 14.203 245.252 15.188 L 245.252 15.188 L 244.655 13.699 L 244.655 13.699 Q 245.604 13.184 246.735 12.891 L 246.735 12.891 L 246.735 12.891 Q 247.866 12.598 249.002 12.598 L 249.002 12.598 L 249.002 12.598 Q 251.299 12.598 252.407 13.617 L 252.407 13.617 L 252.407 13.617 Q 253.514 14.637 253.514 16.887 L 253.514 16.887 L 253.514 25.652 Z  M 247.678 24.281 L 247.678 24.281 L 247.678 24.281 Q 249.495 24.281 250.532 23.285 L 250.532 23.285 L 250.532 23.285 Q 251.569 22.289 251.569 20.496 L 251.569 20.496 L 251.569 19.336 L 249.624 19.418 L 249.624 19.418 Q 247.303 19.5 246.278 20.139 L 246.278 20.139 L 246.278 20.139 Q 245.252 20.777 245.252 22.125 L 245.252 22.125 L 245.252 22.125 Q 245.252 23.18 245.891 23.73 L 245.891 23.73 L 245.891 23.73 Q 246.53 24.281 247.678 24.281 Z  M 259.467 12.809 L 259.467 25.652 L 257.522 25.652 L 257.522 12.809 L 259.467 12.809 Z  M 257.358 9.328 L 257.358 9.328 L 257.358 9.328 Q 257.358 8.66 257.686 8.35 L 257.686 8.35 L 257.686 8.35 Q 258.014 8.039 258.506 8.039 L 258.506 8.039 L 258.506 8.039 Q 258.975 8.039 259.315 8.355 L 259.315 8.355 L 259.315 8.355 Q 259.655 8.672 259.655 9.328 L 259.655 9.328 L 259.655 9.328 Q 259.655 9.984 259.315 10.307 L 259.315 10.307 L 259.315 10.307 Q 258.975 10.629 258.506 10.629 L 258.506 10.629 L 258.506 10.629 Q 258.014 10.629 257.686 10.307 L 257.686 10.307 L 257.686 10.307 Q 257.358 9.984 257.358 9.328 Z  M 274.327 25.652 L 272.381 25.652 L 272.381 17.344 L 272.381 17.344 Q 272.381 15.773 271.667 15 L 271.667 15 L 271.667 15 Q 270.952 14.227 269.428 14.227 L 269.428 14.227 L 269.428 14.227 Q 267.413 14.227 266.475 15.316 L 266.475 15.316 L 266.475 15.316 Q 265.538 16.406 265.538 18.914 L 265.538 18.914 L 265.538 25.652 L 263.592 25.652 L 263.592 12.809 L 265.174 12.809 L 265.491 14.566 L 265.584 14.566 L 265.584 14.566 Q 266.182 13.617 267.26 13.096 L 267.26 13.096 L 267.26 13.096 Q 268.338 12.574 269.663 12.574 L 269.663 12.574 L 269.663 12.574 Q 271.983 12.574 273.155 13.693 L 273.155 13.693 L 273.155 13.693 Q 274.327 14.813 274.327 17.273 L 274.327 17.273 L 274.327 25.652 Z  M 283.749 25.887 L 283.749 25.887 L 283.749 25.887 Q 280.901 25.887 279.254 24.152 L 279.254 24.152 L 279.254 24.152 Q 277.608 22.418 277.608 19.336 L 277.608 19.336 L 277.608 19.336 Q 277.608 16.23 279.137 14.402 L 279.137 14.402 L 279.137 14.402 Q 280.667 12.574 283.245 12.574 L 283.245 12.574 L 283.245 12.574 Q 285.659 12.574 287.065 14.162 L 287.065 14.162 L 287.065 14.162 Q 288.471 15.75 288.471 18.352 L 288.471 18.352 L 288.471 19.582 L 279.624 19.582 L 279.624 19.582 Q 279.682 21.844 280.766 23.016 L 280.766 23.016 L 280.766 23.016 Q 281.85 24.188 283.819 24.188 L 283.819 24.188 L 283.819 24.188 Q 285.893 24.188 287.92 23.32 L 287.92 23.32 L 287.92 25.055 L 287.92 25.055 Q 286.889 25.5 285.969 25.693 L 285.969 25.693 L 285.969 25.693 Q 285.049 25.887 283.749 25.887 Z  M 283.221 14.203 L 283.221 14.203 L 283.221 14.203 Q 281.674 14.203 280.754 15.211 L 280.754 15.211 L 280.754 15.211 Q 279.834 16.219 279.67 18 L 279.67 18 L 286.385 18 L 286.385 18 Q 286.385 16.16 285.565 15.182 L 285.565 15.182 L 285.565 15.182 Q 284.745 14.203 283.221 14.203 Z  M 297.647 12.574 L 297.647 12.574 L 297.647 12.574 Q 298.502 12.574 299.182 12.715 L 299.182 12.715 L 298.913 14.52 L 298.913 14.52 Q 298.116 14.344 297.506 14.344 L 297.506 14.344 L 297.506 14.344 Q 295.948 14.344 294.84 15.609 L 294.84 15.609 L 294.84 15.609 Q 293.733 16.875 293.733 18.762 L 293.733 18.762 L 293.733 25.652 L 291.788 25.652 L 291.788 12.809 L 293.393 12.809 L 293.616 15.188 L 293.709 15.188 L 293.709 15.188 Q 294.424 13.934 295.432 13.254 L 295.432 13.254 L 295.432 13.254 Q 296.44 12.574 297.647 12.574 Z  M 143.452 10.055 L 143.452 10.055 L 143.452 10.055 Q 140.627 10.055 138.993 11.936 L 138.993 11.936 L 138.993 11.936 Q 137.358 13.816 137.358 17.086 L 137.358 17.086 L 137.358 17.086 Q 137.358 20.449 138.934 22.283 L 138.934 22.283 L 138.934 22.283 Q 140.51 24.117 143.428 24.117 L 143.428 24.117 L 143.428 24.117 Q 145.221 24.117 147.518 23.473 L 147.518 23.473 L 147.518 25.219 L 147.518 25.219 Q 145.737 25.887 143.124 25.887 L 143.124 25.887 L 143.124 25.887 Q 139.338 25.887 137.282 23.59 L 137.282 23.59 L 137.282 23.59 Q 135.225 21.293 135.225 17.063 L 135.225 17.063 L 135.225 17.063 Q 135.225 14.414 136.215 12.422 L 136.215 12.422 L 136.215 12.422 Q 137.206 10.43 139.075 9.352 L 139.075 9.352 L 139.075 9.352 Q 140.944 8.273 143.475 8.273 L 143.475 8.273 L 143.475 8.273 Q 146.17 8.273 148.186 9.258 L 148.186 9.258 L 147.342 10.969 L 147.342 10.969 Q 145.397 10.055 143.452 10.055 Z  M 160.303 25.652 L 158.862 25.652 L 158.475 23.824 L 158.381 23.824 L 158.381 23.824 Q 157.42 25.031 156.465 25.459 L 156.465 25.459 L 156.465 25.459 Q 155.51 25.887 154.081 25.887 L 154.081 25.887 L 154.081 25.887 Q 152.17 25.887 151.086 24.902 L 151.086 24.902 L 151.086 24.902 Q 150.002 23.918 150.002 22.102 L 150.002 22.102 L 150.002 22.102 Q 150.002 18.211 156.225 18.023 L 156.225 18.023 L 158.405 17.953 L 158.405 17.156 L 158.405 17.156 Q 158.405 15.645 157.754 14.924 L 157.754 14.924 L 157.754 14.924 Q 157.104 14.203 155.674 14.203 L 155.674 14.203 L 155.674 14.203 Q 154.069 14.203 152.042 15.188 L 152.042 15.188 L 151.444 13.699 L 151.444 13.699 Q 152.393 13.184 153.524 12.891 L 153.524 12.891 L 153.524 12.891 Q 154.655 12.598 155.792 12.598 L 155.792 12.598 L 155.792 12.598 Q 158.088 12.598 159.196 13.617 L 159.196 13.617 L 159.196 13.617 Q 160.303 14.637 160.303 16.887 L 160.303 16.887 L 160.303 25.652 Z  M 154.467 24.281 L 154.467 24.281 L 154.467 24.281 Q 156.284 24.281 157.321 23.285 L 157.321 23.285 L 157.321 23.285 Q 158.358 22.289 158.358 20.496 L 158.358 20.496 L 158.358 19.336 L 156.413 19.418 L 156.413 19.418 Q 154.092 19.5 153.067 20.139 L 153.067 20.139 L 153.067 20.139 Q 152.042 20.777 152.042 22.125 L 152.042 22.125 L 152.042 22.125 Q 152.042 23.18 152.68 23.73 L 152.68 23.73 L 152.68 23.73 Q 153.319 24.281 154.467 24.281 Z  M 170.17 12.574 L 170.17 12.574 L 170.17 12.574 Q 171.026 12.574 171.706 12.715 L 171.706 12.715 L 171.436 14.52 L 171.436 14.52 Q 170.639 14.344 170.03 14.344 L 170.03 14.344 L 170.03 14.344 Q 168.471 14.344 167.364 15.609 L 167.364 15.609 L 167.364 15.609 Q 166.256 16.875 166.256 18.762 L 166.256 18.762 L 166.256 25.652 L 164.311 25.652 L 164.311 12.809 L 165.917 12.809 L 166.139 15.188 L 166.233 15.188 L 166.233 15.188 Q 166.948 13.934 167.956 13.254 L 167.956 13.254 L 167.956 13.254 Q 168.963 12.574 170.17 12.574 Z  M 183.108 25.652 L 182.85 23.93 L 182.745 23.93 L 182.745 23.93 Q 181.397 25.887 178.713 25.887 L 178.713 25.887 L 178.713 25.887 Q 176.194 25.887 174.793 24.164 L 174.793 24.164 L 174.793 24.164 Q 173.393 22.441 173.393 19.266 L 173.393 19.266 L 173.393 19.266 Q 173.393 16.09 174.799 14.332 L 174.799 14.332 L 174.799 14.332 Q 176.206 12.574 178.713 12.574 L 178.713 12.574 L 178.713 12.574 Q 181.327 12.574 182.721 14.473 L 182.721 14.473 L 182.874 14.473 L 182.792 13.547 L 182.745 12.645 L 182.745 7.418 L 184.69 7.418 L 184.69 25.652 L 183.108 25.652 Z  M 178.959 24.258 L 178.959 24.258 L 178.959 24.258 Q 180.952 24.258 181.848 23.174 L 181.848 23.174 L 181.848 23.174 Q 182.745 22.09 182.745 19.676 L 182.745 19.676 L 182.745 19.266 L 182.745 19.266 Q 182.745 16.535 181.836 15.369 L 181.836 15.369 L 181.836 15.369 Q 180.928 14.203 178.936 14.203 L 178.936 14.203 L 178.936 14.203 Q 177.225 14.203 176.317 15.533 L 176.317 15.533 L 176.317 15.533 Q 175.409 16.863 175.409 19.289 L 175.409 19.289 L 175.409 19.289 Q 175.409 21.75 176.311 23.004 L 176.311 23.004 L 176.311 23.004 Q 177.213 24.258 178.959 24.258 Z " fill-rule="evenodd" fill="rgb(255,255,255)"/><path d=" M 189.815 55.154 L 189.815 55.154 L 189.815 55.154 Q 191.924 55.154 193.091 56.594 L 193.091 56.594 L 193.091 56.594 Q 194.258 58.035 194.258 60.671 L 194.258 60.671 L 194.258 60.671 Q 194.258 63.308 193.082 64.768 L 193.082 64.768 L 193.082 64.768 Q 191.905 66.228 189.815 66.228 L 189.815 66.228 L 189.815 66.228 Q 188.77 66.228 187.906 65.842 L 187.906 65.842 L 187.906 65.842 Q 187.042 65.456 186.456 64.656 L 186.456 64.656 L 186.338 64.656 L 185.997 66.033 L 184.834 66.033 L 184.834 50.837 L 186.456 50.837 L 186.456 54.529 L 186.456 54.529 Q 186.456 55.769 186.377 56.755 L 186.377 56.755 L 186.456 56.755 L 186.456 56.755 Q 187.588 55.154 189.815 55.154 Z  M 189.581 56.511 L 189.581 56.511 L 189.581 56.511 Q 187.92 56.511 187.188 57.463 L 187.188 57.463 L 187.188 57.463 Q 186.456 58.415 186.456 60.671 L 186.456 60.671 L 186.456 60.671 Q 186.456 62.927 187.208 63.899 L 187.208 63.899 L 187.208 63.899 Q 187.959 64.87 189.62 64.87 L 189.62 64.87 L 189.62 64.87 Q 191.114 64.87 191.846 63.782 L 191.846 63.782 L 191.846 63.782 Q 192.579 62.693 192.579 60.652 L 192.579 60.652 L 192.579 60.652 Q 192.579 58.562 191.846 57.536 L 191.846 57.536 L 191.846 57.536 Q 191.114 56.511 189.581 56.511 Z  M 204.874 66.033 L 203.672 66.033 L 203.35 64.509 L 203.272 64.509 L 203.272 64.509 Q 202.471 65.515 201.675 65.871 L 201.675 65.871 L 201.675 65.871 Q 200.879 66.228 199.688 66.228 L 199.688 66.228 L 199.688 66.228 Q 198.096 66.228 197.193 65.408 L 197.193 65.408 L 197.193 65.408 Q 196.29 64.587 196.29 63.074 L 196.29 63.074 L 196.29 63.074 Q 196.29 59.831 201.475 59.675 L 201.475 59.675 L 203.292 59.617 L 203.292 58.952 L 203.292 58.952 Q 203.292 57.693 202.75 57.092 L 202.75 57.092 L 202.75 57.092 Q 202.208 56.492 201.016 56.492 L 201.016 56.492 L 201.016 56.492 Q 199.678 56.492 197.989 57.312 L 197.989 57.312 L 197.491 56.072 L 197.491 56.072 Q 198.282 55.642 199.224 55.398 L 199.224 55.398 L 199.224 55.398 Q 200.167 55.154 201.114 55.154 L 201.114 55.154 L 201.114 55.154 Q 203.028 55.154 203.951 56.003 L 203.951 56.003 L 203.951 56.003 Q 204.874 56.853 204.874 58.728 L 204.874 58.728 L 204.874 66.033 Z  M 200.01 64.89 L 200.01 64.89 L 200.01 64.89 Q 201.524 64.89 202.388 64.06 L 202.388 64.06 L 202.388 64.06 Q 203.252 63.23 203.252 61.736 L 203.252 61.736 L 203.252 60.769 L 201.631 60.837 L 201.631 60.837 Q 199.698 60.906 198.843 61.438 L 198.843 61.438 L 198.843 61.438 Q 197.989 61.97 197.989 63.093 L 197.989 63.093 L 197.989 63.093 Q 197.989 63.972 198.521 64.431 L 198.521 64.431 L 198.521 64.431 Q 199.053 64.89 200.01 64.89 Z  M 212.491 66.228 L 212.491 66.228 L 212.491 66.228 Q 210.167 66.228 208.892 64.797 L 208.892 64.797 L 208.892 64.797 Q 207.618 63.367 207.618 60.749 L 207.618 60.749 L 207.618 60.749 Q 207.618 58.064 208.912 56.599 L 208.912 56.599 L 208.912 56.599 Q 210.206 55.134 212.598 55.134 L 212.598 55.134 L 212.598 55.134 Q 213.37 55.134 214.141 55.3 L 214.141 55.3 L 214.141 55.3 Q 214.913 55.466 215.352 55.691 L 215.352 55.691 L 214.854 57.068 L 214.854 57.068 Q 214.317 56.853 213.682 56.711 L 213.682 56.711 L 213.682 56.711 Q 213.047 56.57 212.559 56.57 L 212.559 56.57 L 212.559 56.57 Q 209.297 56.57 209.297 60.73 L 209.297 60.73 L 209.297 60.73 Q 209.297 62.702 210.093 63.757 L 210.093 63.757 L 210.093 63.757 Q 210.889 64.812 212.452 64.812 L 212.452 64.812 L 212.452 64.812 Q 213.79 64.812 215.196 64.236 L 215.196 64.236 L 215.196 65.671 L 215.196 65.671 Q 214.122 66.228 212.491 66.228 Z  M 219.258 60.554 L 219.336 60.554 L 219.336 60.554 Q 219.756 59.958 220.616 58.992 L 220.616 58.992 L 224.073 55.329 L 225.997 55.329 L 221.661 59.89 L 226.299 66.033 L 224.336 66.033 L 220.557 60.974 L 219.336 62.029 L 219.336 66.033 L 217.735 66.033 L 217.735 50.837 L 219.336 50.837 L 219.336 58.894 L 219.336 58.894 Q 219.336 59.431 219.258 60.554 L 219.258 60.554 Z  M 233.292 55.329 L 236.993 55.329 L 236.993 56.355 L 235.01 56.589 L 235.01 56.589 Q 235.284 56.931 235.499 57.483 L 235.499 57.483 L 235.499 57.483 Q 235.713 58.035 235.713 58.728 L 235.713 58.728 L 235.713 58.728 Q 235.713 60.3 234.639 61.238 L 234.639 61.238 L 234.639 61.238 Q 233.565 62.175 231.69 62.175 L 231.69 62.175 L 231.69 62.175 Q 231.211 62.175 230.792 62.097 L 230.792 62.097 L 230.792 62.097 Q 229.756 62.644 229.756 63.474 L 229.756 63.474 L 229.756 63.474 Q 229.756 63.913 230.118 64.123 L 230.118 64.123 L 230.118 64.123 Q 230.479 64.333 231.358 64.333 L 231.358 64.333 L 233.252 64.333 L 233.252 64.333 Q 234.991 64.333 235.923 65.066 L 235.923 65.066 L 235.923 65.066 Q 236.856 65.798 236.856 67.195 L 236.856 67.195 L 236.856 67.195 Q 236.856 68.972 235.43 69.905 L 235.43 69.905 L 235.43 69.905 Q 234.004 70.837 231.27 70.837 L 231.27 70.837 L 231.27 70.837 Q 229.17 70.837 228.033 70.056 L 228.033 70.056 L 228.033 70.056 Q 226.895 69.275 226.895 67.849 L 226.895 67.849 L 226.895 67.849 Q 226.895 66.872 227.52 66.16 L 227.52 66.16 L 227.52 66.16 Q 228.145 65.447 229.278 65.193 L 229.278 65.193 L 229.278 65.193 Q 228.868 65.007 228.589 64.617 L 228.589 64.617 L 228.589 64.617 Q 228.311 64.226 228.311 63.708 L 228.311 63.708 L 228.311 63.708 Q 228.311 63.122 228.624 62.683 L 228.624 62.683 L 228.624 62.683 Q 228.936 62.244 229.61 61.833 L 229.61 61.833 L 229.61 61.833 Q 228.78 61.492 228.257 60.671 L 228.257 60.671 L 228.257 60.671 Q 227.735 59.851 227.735 58.796 L 227.735 58.796 L 227.735 58.796 Q 227.735 57.038 228.79 56.086 L 228.79 56.086 L 228.79 56.086 Q 229.844 55.134 231.778 55.134 L 231.778 55.134 L 231.778 55.134 Q 232.618 55.134 233.292 55.329 L 233.292 55.329 Z  M 228.458 67.829 L 228.458 67.829 L 228.458 67.829 Q 228.458 68.699 229.19 69.148 L 229.19 69.148 L 229.19 69.148 Q 229.922 69.597 231.29 69.597 L 231.29 69.597 L 231.29 69.597 Q 233.331 69.597 234.312 68.987 L 234.312 68.987 L 234.312 68.987 Q 235.293 68.376 235.293 67.331 L 235.293 67.331 L 235.293 67.331 Q 235.293 66.462 234.756 66.125 L 234.756 66.125 L 234.756 66.125 Q 234.219 65.788 232.735 65.788 L 232.735 65.788 L 230.792 65.788 L 230.792 65.788 Q 229.688 65.788 229.073 66.316 L 229.073 66.316 L 229.073 66.316 Q 228.458 66.843 228.458 67.829 Z  M 229.336 58.757 L 229.336 58.757 L 229.336 58.757 Q 229.336 59.88 229.971 60.456 L 229.971 60.456 L 229.971 60.456 Q 230.606 61.033 231.739 61.033 L 231.739 61.033 L 231.739 61.033 Q 234.112 61.033 234.112 58.728 L 234.112 58.728 L 234.112 58.728 Q 234.112 56.316 231.709 56.316 L 231.709 56.316 L 231.709 56.316 Q 230.567 56.316 229.952 56.931 L 229.952 56.931 L 229.952 56.931 Q 229.336 57.546 229.336 58.757 Z  M 244.073 55.134 L 244.073 55.134 L 244.073 55.134 Q 244.786 55.134 245.352 55.251 L 245.352 55.251 L 245.127 56.755 L 245.127 56.755 Q 244.463 56.609 243.956 56.609 L 243.956 56.609 L 243.956 56.609 Q 242.657 56.609 241.734 57.663 L 241.734 57.663 L 241.734 57.663 Q 240.811 58.718 240.811 60.29 L 240.811 60.29 L 240.811 66.033 L 239.19 66.033 L 239.19 55.329 L 240.528 55.329 L 240.713 57.312 L 240.792 57.312 L 240.792 57.312 Q 241.387 56.267 242.227 55.701 L 242.227 55.701 L 242.227 55.701 Q 243.067 55.134 244.073 55.134 Z  M 256.592 60.671 L 256.592 60.671 L 256.592 60.671 Q 256.592 63.288 255.274 64.758 L 255.274 64.758 L 255.274 64.758 Q 253.956 66.228 251.631 66.228 L 251.631 66.228 L 251.631 66.228 Q 250.196 66.228 249.083 65.554 L 249.083 65.554 L 249.083 65.554 Q 247.969 64.88 247.364 63.62 L 247.364 63.62 L 247.364 63.62 Q 246.758 62.361 246.758 60.671 L 246.758 60.671 L 246.758 60.671 Q 246.758 58.054 248.067 56.594 L 248.067 56.594 L 248.067 56.594 Q 249.375 55.134 251.7 55.134 L 251.7 55.134 L 251.7 55.134 Q 253.946 55.134 255.269 56.628 L 255.269 56.628 L 255.269 56.628 Q 256.592 58.122 256.592 60.671 Z  M 248.438 60.671 L 248.438 60.671 L 248.438 60.671 Q 248.438 62.722 249.258 63.796 L 249.258 63.796 L 249.258 63.796 Q 250.079 64.87 251.67 64.87 L 251.67 64.87 L 251.67 64.87 Q 253.262 64.87 254.087 63.801 L 254.087 63.801 L 254.087 63.801 Q 254.913 62.732 254.913 60.671 L 254.913 60.671 L 254.913 60.671 Q 254.913 58.63 254.087 57.571 L 254.087 57.571 L 254.087 57.571 Q 253.262 56.511 251.651 56.511 L 251.651 56.511 L 251.651 56.511 Q 250.059 56.511 249.249 57.556 L 249.249 57.556 L 249.249 57.556 Q 248.438 58.601 248.438 60.671 Z  M 259.317 55.329 L 260.958 55.329 L 260.958 62.273 L 260.958 62.273 Q 260.958 63.581 261.553 64.226 L 261.553 64.226 L 261.553 64.226 Q 262.149 64.87 263.418 64.87 L 263.418 64.87 L 263.418 64.87 Q 265.098 64.87 265.875 63.952 L 265.875 63.952 L 265.875 63.952 Q 266.651 63.035 266.651 60.954 L 266.651 60.954 L 266.651 55.329 L 268.272 55.329 L 268.272 66.033 L 266.934 66.033 L 266.7 64.597 L 266.612 64.597 L 266.612 64.597 Q 266.114 65.388 265.23 65.808 L 265.23 65.808 L 265.23 65.808 Q 264.346 66.228 263.213 66.228 L 263.213 66.228 L 263.213 66.228 Q 261.26 66.228 260.289 65.3 L 260.289 65.3 L 260.289 65.3 Q 259.317 64.372 259.317 62.331 L 259.317 62.331 L 259.317 55.329 Z  M 280.655 66.033 L 279.034 66.033 L 279.034 59.109 L 279.034 59.109 Q 279.034 57.8 278.438 57.156 L 278.438 57.156 L 278.438 57.156 Q 277.842 56.511 276.573 56.511 L 276.573 56.511 L 276.573 56.511 Q 274.893 56.511 274.112 57.419 L 274.112 57.419 L 274.112 57.419 Q 273.331 58.327 273.331 60.417 L 273.331 60.417 L 273.331 66.033 L 271.709 66.033 L 271.709 55.329 L 273.028 55.329 L 273.292 56.794 L 273.37 56.794 L 273.37 56.794 Q 273.868 56.003 274.766 55.569 L 274.766 55.569 L 274.766 55.569 Q 275.665 55.134 276.768 55.134 L 276.768 55.134 L 276.768 55.134 Q 278.702 55.134 279.678 56.067 L 279.678 56.067 L 279.678 56.067 Q 280.655 56.999 280.655 59.05 L 280.655 59.05 L 280.655 66.033 Z  M 291.485 66.033 L 291.27 64.597 L 291.182 64.597 L 291.182 64.597 Q 290.059 66.228 287.823 66.228 L 287.823 66.228 L 287.823 66.228 Q 285.723 66.228 284.556 64.792 L 284.556 64.792 L 284.556 64.792 Q 283.389 63.357 283.389 60.71 L 283.389 60.71 L 283.389 60.71 Q 283.389 58.064 284.561 56.599 L 284.561 56.599 L 284.561 56.599 Q 285.733 55.134 287.823 55.134 L 287.823 55.134 L 287.823 55.134 Q 290 55.134 291.163 56.716 L 291.163 56.716 L 291.29 56.716 L 291.221 55.945 L 291.182 55.193 L 291.182 50.837 L 292.803 50.837 L 292.803 66.033 L 291.485 66.033 Z  M 288.028 64.87 L 288.028 64.87 L 288.028 64.87 Q 289.688 64.87 290.435 63.967 L 290.435 63.967 L 290.435 63.967 Q 291.182 63.064 291.182 61.052 L 291.182 61.052 L 291.182 60.71 L 291.182 60.71 Q 291.182 58.435 290.425 57.463 L 290.425 57.463 L 290.425 57.463 Q 289.668 56.492 288.008 56.492 L 288.008 56.492 L 288.008 56.492 Q 286.583 56.492 285.826 57.6 L 285.826 57.6 L 285.826 57.6 Q 285.069 58.708 285.069 60.73 L 285.069 60.73 L 285.069 60.73 Q 285.069 62.781 285.821 63.826 L 285.821 63.826 L 285.821 63.826 Q 286.573 64.87 288.028 64.87 Z  M 141.836 53.035 L 141.836 53.035 L 141.836 53.035 Q 139.483 53.035 138.121 54.602 L 138.121 54.602 L 138.121 54.602 Q 136.758 56.169 136.758 58.894 L 136.758 58.894 L 136.758 58.894 Q 136.758 61.697 138.072 63.225 L 138.072 63.225 L 138.072 63.225 Q 139.385 64.753 141.817 64.753 L 141.817 64.753 L 141.817 64.753 Q 143.311 64.753 145.225 64.216 L 145.225 64.216 L 145.225 65.671 L 145.225 65.671 Q 143.741 66.228 141.563 66.228 L 141.563 66.228 L 141.563 66.228 Q 138.409 66.228 136.695 64.314 L 136.695 64.314 L 136.695 64.314 Q 134.981 62.4 134.981 58.874 L 134.981 58.874 L 134.981 58.874 Q 134.981 56.667 135.806 55.007 L 135.806 55.007 L 135.806 55.007 Q 136.631 53.347 138.189 52.449 L 138.189 52.449 L 138.189 52.449 Q 139.747 51.55 141.856 51.55 L 141.856 51.55 L 141.856 51.55 Q 144.102 51.55 145.782 52.37 L 145.782 52.37 L 145.079 53.796 L 145.079 53.796 Q 143.458 53.035 141.836 53.035 Z  M 155.879 66.033 L 154.678 66.033 L 154.356 64.509 L 154.278 64.509 L 154.278 64.509 Q 153.477 65.515 152.681 65.871 L 152.681 65.871 L 152.681 65.871 Q 151.885 66.228 150.694 66.228 L 150.694 66.228 L 150.694 66.228 Q 149.102 66.228 148.199 65.408 L 148.199 65.408 L 148.199 65.408 Q 147.295 64.587 147.295 63.074 L 147.295 63.074 L 147.295 63.074 Q 147.295 59.831 152.481 59.675 L 152.481 59.675 L 154.297 59.617 L 154.297 58.952 L 154.297 58.952 Q 154.297 57.693 153.755 57.092 L 153.755 57.092 L 153.755 57.092 Q 153.213 56.492 152.022 56.492 L 152.022 56.492 L 152.022 56.492 Q 150.684 56.492 148.995 57.312 L 148.995 57.312 L 148.497 56.072 L 148.497 56.072 Q 149.288 55.642 150.23 55.398 L 150.23 55.398 L 150.23 55.398 Q 151.172 55.154 152.12 55.154 L 152.12 55.154 L 152.12 55.154 Q 154.034 55.154 154.957 56.003 L 154.957 56.003 L 154.957 56.003 Q 155.879 56.853 155.879 58.728 L 155.879 58.728 L 155.879 66.033 Z  M 151.016 64.89 L 151.016 64.89 L 151.016 64.89 Q 152.53 64.89 153.394 64.06 L 153.394 64.06 L 153.394 64.06 Q 154.258 63.23 154.258 61.736 L 154.258 61.736 L 154.258 60.769 L 152.637 60.837 L 152.637 60.837 Q 150.704 60.906 149.849 61.438 L 149.849 61.438 L 149.849 61.438 Q 148.995 61.97 148.995 63.093 L 148.995 63.093 L 148.995 63.093 Q 148.995 63.972 149.527 64.431 L 149.527 64.431 L 149.527 64.431 Q 150.059 64.89 151.016 64.89 Z  M 164.102 55.134 L 164.102 55.134 L 164.102 55.134 Q 164.815 55.134 165.381 55.251 L 165.381 55.251 L 165.157 56.755 L 165.157 56.755 Q 164.493 56.609 163.985 56.609 L 163.985 56.609 L 163.985 56.609 Q 162.686 56.609 161.763 57.663 L 161.763 57.663 L 161.763 57.663 Q 160.84 58.718 160.84 60.29 L 160.84 60.29 L 160.84 66.033 L 159.219 66.033 L 159.219 55.329 L 160.557 55.329 L 160.743 57.312 L 160.821 57.312 L 160.821 57.312 Q 161.417 56.267 162.256 55.701 L 162.256 55.701 L 162.256 55.701 Q 163.096 55.134 164.102 55.134 Z  M 174.883 66.033 L 174.668 64.597 L 174.581 64.597 L 174.581 64.597 Q 173.458 66.228 171.221 66.228 L 171.221 66.228 L 171.221 66.228 Q 169.122 66.228 167.955 64.792 L 167.955 64.792 L 167.955 64.792 Q 166.788 63.357 166.788 60.71 L 166.788 60.71 L 166.788 60.71 Q 166.788 58.064 167.959 56.599 L 167.959 56.599 L 167.959 56.599 Q 169.131 55.134 171.221 55.134 L 171.221 55.134 L 171.221 55.134 Q 173.399 55.134 174.561 56.716 L 174.561 56.716 L 174.688 56.716 L 174.62 55.945 L 174.581 55.193 L 174.581 50.837 L 176.202 50.837 L 176.202 66.033 L 174.883 66.033 Z  M 171.426 64.87 L 171.426 64.87 L 171.426 64.87 Q 173.086 64.87 173.833 63.967 L 173.833 63.967 L 173.833 63.967 Q 174.581 63.064 174.581 61.052 L 174.581 61.052 L 174.581 60.71 L 174.581 60.71 Q 174.581 58.435 173.824 57.463 L 173.824 57.463 L 173.824 57.463 Q 173.067 56.492 171.407 56.492 L 171.407 56.492 L 171.407 56.492 Q 169.981 56.492 169.224 57.6 L 169.224 57.6 L 169.224 57.6 Q 168.467 58.708 168.467 60.73 L 168.467 60.73 L 168.467 60.73 Q 168.467 62.781 169.219 63.826 L 169.219 63.826 L 169.219 63.826 Q 169.971 64.87 171.426 64.87 Z " fill-rule="evenodd" fill="rgb(0,0,0)"/><path d=" M 200.504 120.999 L 200.504 122.259 L 197.779 122.259 L 197.779 131.703 L 196.158 131.703 L 196.158 122.259 L 194.244 122.259 L 194.244 121.527 L 196.158 120.941 L 196.158 120.345 L 196.158 120.345 Q 196.158 116.4 199.605 116.4 L 199.605 116.4 L 199.605 116.4 Q 200.455 116.4 201.597 116.742 L 201.597 116.742 L 201.177 118.04 L 201.177 118.04 Q 200.24 117.738 199.576 117.738 L 199.576 117.738 L 199.576 117.738 Q 198.658 117.738 198.218 118.348 L 198.218 118.348 L 198.218 118.348 Q 197.779 118.958 197.779 120.306 L 197.779 120.306 L 197.779 120.999 L 200.504 120.999 Z  M 207.339 120.804 L 207.339 120.804 L 207.339 120.804 Q 208.052 120.804 208.619 120.921 L 208.619 120.921 L 208.394 122.425 L 208.394 122.425 Q 207.73 122.279 207.222 122.279 L 207.222 122.279 L 207.222 122.279 Q 205.923 122.279 205.001 123.333 L 205.001 123.333 L 205.001 123.333 Q 204.078 124.388 204.078 125.96 L 204.078 125.96 L 204.078 131.703 L 202.457 131.703 L 202.457 120.999 L 203.795 120.999 L 203.98 122.982 L 204.058 122.982 L 204.058 122.982 Q 204.654 121.937 205.494 121.371 L 205.494 121.371 L 205.494 121.371 Q 206.334 120.804 207.339 120.804 Z  M 218.404 131.703 L 217.203 131.703 L 216.88 130.179 L 216.802 130.179 L 216.802 130.179 Q 216.002 131.185 215.206 131.541 L 215.206 131.541 L 215.206 131.541 Q 214.41 131.898 213.218 131.898 L 213.218 131.898 L 213.218 131.898 Q 211.627 131.898 210.723 131.078 L 210.723 131.078 L 210.723 131.078 Q 209.82 130.257 209.82 128.744 L 209.82 128.744 L 209.82 128.744 Q 209.82 125.501 215.005 125.345 L 215.005 125.345 L 216.822 125.287 L 216.822 124.623 L 216.822 124.623 Q 216.822 123.363 216.28 122.762 L 216.28 122.762 L 216.28 122.762 Q 215.738 122.162 214.546 122.162 L 214.546 122.162 L 214.546 122.162 Q 213.209 122.162 211.519 122.982 L 211.519 122.982 L 211.021 121.742 L 211.021 121.742 Q 211.812 121.312 212.755 121.068 L 212.755 121.068 L 212.755 121.068 Q 213.697 120.824 214.644 120.824 L 214.644 120.824 L 214.644 120.824 Q 216.558 120.824 217.481 121.673 L 217.481 121.673 L 217.481 121.673 Q 218.404 122.523 218.404 124.398 L 218.404 124.398 L 218.404 131.703 Z  M 213.541 130.56 L 213.541 130.56 L 213.541 130.56 Q 215.054 130.56 215.919 129.73 L 215.919 129.73 L 215.919 129.73 Q 216.783 128.9 216.783 127.406 L 216.783 127.406 L 216.783 126.439 L 215.162 126.507 L 215.162 126.507 Q 213.228 126.576 212.374 127.108 L 212.374 127.108 L 212.374 127.108 Q 211.519 127.64 211.519 128.763 L 211.519 128.763 L 211.519 128.763 Q 211.519 129.642 212.051 130.101 L 212.051 130.101 L 212.051 130.101 Q 212.584 130.56 213.541 130.56 Z  M 237.007 131.703 L 235.386 131.703 L 235.386 124.74 L 235.386 124.74 Q 235.386 123.46 234.839 122.821 L 234.839 122.821 L 234.839 122.821 Q 234.293 122.181 233.14 122.181 L 233.14 122.181 L 233.14 122.181 Q 231.627 122.181 230.904 123.05 L 230.904 123.05 L 230.904 123.05 Q 230.181 123.919 230.181 125.726 L 230.181 125.726 L 230.181 131.703 L 228.56 131.703 L 228.56 124.74 L 228.56 124.74 Q 228.56 123.46 228.013 122.821 L 228.013 122.821 L 228.013 122.821 Q 227.466 122.181 226.304 122.181 L 226.304 122.181 L 226.304 122.181 Q 224.781 122.181 224.073 123.094 L 224.073 123.094 L 224.073 123.094 Q 223.365 124.007 223.365 126.087 L 223.365 126.087 L 223.365 131.703 L 221.744 131.703 L 221.744 120.999 L 223.062 120.999 L 223.326 122.464 L 223.404 122.464 L 223.404 122.464 Q 223.863 121.683 224.698 121.244 L 224.698 121.244 L 224.698 121.244 Q 225.533 120.804 226.568 120.804 L 226.568 120.804 L 226.568 120.804 Q 229.078 120.804 229.849 122.621 L 229.849 122.621 L 229.927 122.621 L 229.927 122.621 Q 230.406 121.781 231.314 121.292 L 231.314 121.292 L 231.314 121.292 Q 232.222 120.804 233.384 120.804 L 233.384 120.804 L 233.384 120.804 Q 235.201 120.804 236.104 121.737 L 236.104 121.737 L 236.104 121.737 Q 237.007 122.669 237.007 124.72 L 237.007 124.72 L 237.007 131.703 Z  M 244.869 131.898 L 244.869 131.898 L 244.869 131.898 Q 242.496 131.898 241.124 130.453 L 241.124 130.453 L 241.124 130.453 Q 239.752 129.007 239.752 126.439 L 239.752 126.439 L 239.752 126.439 Q 239.752 123.851 241.026 122.328 L 241.026 122.328 L 241.026 122.328 Q 242.3 120.804 244.449 120.804 L 244.449 120.804 L 244.449 120.804 Q 246.461 120.804 247.632 122.127 L 247.632 122.127 L 247.632 122.127 Q 248.804 123.451 248.804 125.619 L 248.804 125.619 L 248.804 126.644 L 241.431 126.644 L 241.431 126.644 Q 241.48 128.529 242.383 129.505 L 242.383 129.505 L 242.383 129.505 Q 243.287 130.482 244.927 130.482 L 244.927 130.482 L 244.927 130.482 Q 246.656 130.482 248.345 129.759 L 248.345 129.759 L 248.345 131.205 L 248.345 131.205 Q 247.486 131.576 246.719 131.737 L 246.719 131.737 L 246.719 131.737 Q 245.953 131.898 244.869 131.898 Z  M 244.429 122.162 L 244.429 122.162 L 244.429 122.162 Q 243.14 122.162 242.374 123.001 L 242.374 123.001 L 242.374 123.001 Q 241.607 123.841 241.47 125.326 L 241.47 125.326 L 247.066 125.326 L 247.066 125.326 Q 247.066 123.792 246.382 122.977 L 246.382 122.977 L 246.382 122.977 Q 245.699 122.162 244.429 122.162 Z  M 152.681 118.705 L 152.681 118.705 L 152.681 118.705 Q 150.328 118.705 148.965 120.272 L 148.965 120.272 L 148.965 120.272 Q 147.603 121.839 147.603 124.564 L 147.603 124.564 L 147.603 124.564 Q 147.603 127.367 148.917 128.895 L 148.917 128.895 L 148.917 128.895 Q 150.23 130.423 152.662 130.423 L 152.662 130.423 L 152.662 130.423 Q 154.156 130.423 156.07 129.886 L 156.07 129.886 L 156.07 131.341 L 156.07 131.341 Q 154.586 131.898 152.408 131.898 L 152.408 131.898 L 152.408 131.898 Q 149.254 131.898 147.54 129.984 L 147.54 129.984 L 147.54 129.984 Q 145.826 128.07 145.826 124.544 L 145.826 124.544 L 145.826 124.544 Q 145.826 122.337 146.651 120.677 L 146.651 120.677 L 146.651 120.677 Q 147.476 119.017 149.034 118.119 L 149.034 118.119 L 149.034 118.119 Q 150.591 117.22 152.701 117.22 L 152.701 117.22 L 152.701 117.22 Q 154.947 117.22 156.627 118.04 L 156.627 118.04 L 155.923 119.466 L 155.923 119.466 Q 154.302 118.705 152.681 118.705 Z  M 166.724 131.703 L 165.523 131.703 L 165.201 130.179 L 165.123 130.179 L 165.123 130.179 Q 164.322 131.185 163.526 131.541 L 163.526 131.541 L 163.526 131.541 Q 162.73 131.898 161.539 131.898 L 161.539 131.898 L 161.539 131.898 Q 159.947 131.898 159.044 131.078 L 159.044 131.078 L 159.044 131.078 Q 158.14 130.257 158.14 128.744 L 158.14 128.744 L 158.14 128.744 Q 158.14 125.501 163.326 125.345 L 163.326 125.345 L 165.142 125.287 L 165.142 124.623 L 165.142 124.623 Q 165.142 123.363 164.6 122.762 L 164.6 122.762 L 164.6 122.762 Q 164.058 122.162 162.867 122.162 L 162.867 122.162 L 162.867 122.162 Q 161.529 122.162 159.839 122.982 L 159.839 122.982 L 159.341 121.742 L 159.341 121.742 Q 160.132 121.312 161.075 121.068 L 161.075 121.068 L 161.075 121.068 Q 162.017 120.824 162.964 120.824 L 162.964 120.824 L 162.964 120.824 Q 164.879 120.824 165.801 121.673 L 165.801 121.673 L 165.801 121.673 Q 166.724 122.523 166.724 124.398 L 166.724 124.398 L 166.724 131.703 Z  M 161.861 130.56 L 161.861 130.56 L 161.861 130.56 Q 163.375 130.56 164.239 129.73 L 164.239 129.73 L 164.239 129.73 Q 165.103 128.9 165.103 127.406 L 165.103 127.406 L 165.103 126.439 L 163.482 126.507 L 163.482 126.507 Q 161.548 126.576 160.694 127.108 L 160.694 127.108 L 160.694 127.108 Q 159.839 127.64 159.839 128.763 L 159.839 128.763 L 159.839 128.763 Q 159.839 129.642 160.372 130.101 L 160.372 130.101 L 160.372 130.101 Q 160.904 130.56 161.861 130.56 Z  M 174.947 120.804 L 174.947 120.804 L 174.947 120.804 Q 175.66 120.804 176.226 120.921 L 176.226 120.921 L 176.002 122.425 L 176.002 122.425 Q 175.338 122.279 174.83 122.279 L 174.83 122.279 L 174.83 122.279 Q 173.531 122.279 172.608 123.333 L 172.608 123.333 L 172.608 123.333 Q 171.685 124.388 171.685 125.96 L 171.685 125.96 L 171.685 131.703 L 170.064 131.703 L 170.064 120.999 L 171.402 120.999 L 171.588 122.982 L 171.666 122.982 L 171.666 122.982 Q 172.261 121.937 173.101 121.371 L 173.101 121.371 L 173.101 121.371 Q 173.941 120.804 174.947 120.804 Z  M 185.728 131.703 L 185.513 130.267 L 185.425 130.267 L 185.425 130.267 Q 184.302 131.898 182.066 131.898 L 182.066 131.898 L 182.066 131.898 Q 179.966 131.898 178.799 130.462 L 178.799 130.462 L 178.799 130.462 Q 177.632 129.027 177.632 126.38 L 177.632 126.38 L 177.632 126.38 Q 177.632 123.734 178.804 122.269 L 178.804 122.269 L 178.804 122.269 Q 179.976 120.804 182.066 120.804 L 182.066 120.804 L 182.066 120.804 Q 184.244 120.804 185.406 122.386 L 185.406 122.386 L 185.533 122.386 L 185.464 121.615 L 185.425 120.863 L 185.425 116.507 L 187.046 116.507 L 187.046 131.703 L 185.728 131.703 Z  M 182.271 130.54 L 182.271 130.54 L 182.271 130.54 Q 183.931 130.54 184.678 129.637 L 184.678 129.637 L 184.678 129.637 Q 185.425 128.734 185.425 126.722 L 185.425 126.722 L 185.425 126.38 L 185.425 126.38 Q 185.425 124.105 184.669 123.133 L 184.669 123.133 L 184.669 123.133 Q 183.912 122.162 182.252 122.162 L 182.252 122.162 L 182.252 122.162 Q 180.826 122.162 180.069 123.27 L 180.069 123.27 L 180.069 123.27 Q 179.312 124.378 179.312 126.4 L 179.312 126.4 L 179.312 126.4 Q 179.312 128.451 180.064 129.496 L 180.064 129.496 L 180.064 129.496 Q 180.816 130.54 182.271 130.54 Z " fill-rule="evenodd" fill="rgb(0,0,0)"/></g></svg>